<svg
          version="1.0"
          xmlns="http://www.w3.org/2000/svg"
          viewBox="0 0 500 500"
          preserveAspectRatio="xMidYMid meet"
        >
          <g
            transform="translate(0.000000,500.000000) scale(0.100000,-0.100000)"
            fill="currentColor"
            stroke="none"
          >
            <path
                fill="#57674b"
              d="M1946 4658 c-21 -30 -20 -42 9 -76 24 -29 147 -96 165 -90 15 5 -42
118 -78 156 -36 38 -74 42 -96 10z"
            />
            <path
                fill="hotpink"
              d="M1057 4513 c-4 -3 -7 -14 -7 -23 0 -13 -6 -16 -25 -12 -20 3 -25 0
-25 -16 0 -11 6 -22 13 -25 9 -3 9 -7 -2 -20 -22 -27 -6 -50 29 -44 16 4 32 2
35 -3 11 -17 43 -11 50 9 3 10 15 21 25 24 20 5 29 47 10 47 -5 0 -9 10 -7 23
1 16 -3 22 -18 22 -11 0 -24 6 -28 13 -9 13 -39 16 -50 5z"
            />
            <path
                fill="hotpink"
              d="M3472 4438 c-7 -7 -12 -18 -12 -25 0 -11 -4 -11 -20 -1 -28 18 -46
-8 -24 -33 13 -15 13 -17 -1 -22 -8 -4 -15 -15 -15 -26 0 -21 28 -37 43 -22 5
5 16 2 28 -10 20 -20 49 -16 49 7 0 8 10 14 25 14 24 0 25 3 22 48 -2 39 -6
47 -22 47 -11 0 -23 8 -27 18 -8 20 -29 22 -46 5z"
            />
            <path
                fill="#57674b"
              d="M3810 4375 c0 -14 5 -25 10 -25 6 0 10 -6 10 -13 0 -21 30 -77 41
-77 13 0 11 24 -3 38 -14 14 0 16 21 3 10 -6 12 -19 8 -41 -6 -26 -3 -33 13
-37 24 -6 26 -19 5 -27 -8 -3 -15 -13 -15 -21 0 -9 -5 -13 -10 -10 -8 5 -7 11
0 20 7 8 9 19 5 25 -10 16 -32 12 -39 -7 -3 -10 -8 -23 -11 -29 -8 -15 43 -36
68 -28 20 6 20 6 4 -10 -9 -10 -21 -15 -26 -11 -15 8 -23 -12 -13 -32 30 -60
42 -78 56 -81 23 -5 19 13 -9 44 -13 14 -22 31 -19 36 7 12 34 -10 34 -28 0
-19 20 -28 33 -14 9 9 8 15 -6 25 -13 9 -15 15 -6 20 7 5 16 1 21 -9 11 -19
38 -22 38 -3 0 6 -9 23 -20 37 -11 14 -20 32 -20 41 0 9 -10 19 -21 22 -20 5
-20 7 -6 22 9 8 20 15 24 14 11 -3 46 13 61 27 20 20 14 44 -10 44 -17 0 -19
3 -9 9 7 5 10 14 7 20 -11 16 -36 13 -36 -5 0 -8 -5 -12 -11 -9 -7 5 -4 15 7
32 13 21 14 27 3 34 -9 6 -18 3 -25 -6 -13 -17 -24 -9 -24 17 0 10 -6 18 -14
18 -22 0 -13 -48 13 -66 17 -12 19 -19 11 -29 -14 -17 -41 -9 -34 10 3 7 -2
19 -10 28 -9 9 -13 22 -10 30 7 20 -14 33 -29 18 -9 -9 -8 -14 2 -20 14 -9 7
-31 -10 -31 -6 0 -7 4 -4 10 9 14 -13 50 -30 50 -9 0 -15 -10 -15 -25z"
            />
            <path

                fill="#57674b"
              d="M1594 4379 c-3 -6 3 -29 14 -52 11 -23 23 -50 26 -59 6 -21 26 -24
26 -5 0 7 -5 18 -12 25 -9 9 -8 12 5 12 20 0 39 -40 26 -54 -15 -16 -11 -24
23 -40 21 -11 34 -13 38 -6 4 6 11 10 16 9 19 -3 55 14 51 25 -4 13 -60 9 -65
-5 -6 -14 -29 -10 -36 6 -3 10 1 15 13 15 10 0 24 7 31 15 7 8 18 15 25 15 7
0 15 -7 19 -15 6 -17 46 -21 46 -4 0 6 -8 13 -19 16 -13 3 -17 11 -14 24 7 24
-22 26 -35 3 -6 -10 -12 -13 -16 -6 -3 6 1 18 10 26 9 9 13 23 10 31 -6 17
-22 20 -31 5 -10 -16 -25 -12 -19 5 5 13 -21 34 -31 24 -8 -9 8 -59 20 -59 19
0 26 -27 11 -39 -15 -13 -26 -5 -26 19 0 10 -6 23 -14 30 -8 6 -13 17 -10 25
6 15 -12 29 -26 20 -8 -5 -7 -11 0 -20 12 -15 6 -35 -10 -35 -5 0 -7 7 -4 15
6 15 -12 45 -27 45 -4 0 -11 -5 -15 -11z"
            />
            <path

                fill="#57674b"
              d="M2580 4375 c-9 -11 -16 -13 -24 -5 -5 5 -19 10 -29 10 -16 0 -18 -5
-14 -29 5 -23 2 -30 -14 -34 -16 -4 -20 -12 -17 -34 2 -22 9 -29 32 -33 17 -3
29 -8 28 -12 -5 -19 0 -27 19 -33 14 -5 25 -2 30 6 5 8 23 14 41 14 29 0 33 3
33 27 1 15 4 30 8 34 4 4 7 18 7 31 0 16 -6 23 -19 23 -13 0 -21 8 -23 23 -4
27 -39 35 -58 12z"
            />
            <path

                fill="#57674b"
              d="M1178 4261 c-89 -57 -128 -143 -128 -284 0 -70 -4 -86 -31 -133 -16
-29 -34 -56 -40 -59 -5 -4 -9 22 -9 62 0 70 -16 136 -45 193 -12 23 -22 30
-38 28 -19 -3 -22 -10 -25 -53 -4 -65 10 -112 51 -166 64 -84 64 -78 2 -179
-31 -49 -60 -90 -64 -90 -5 0 -14 28 -20 63 -7 34 -23 85 -35 112 -45 98 -126
153 -126 85 0 -61 40 -140 107 -211 48 -51 63 -72 55 -82 -5 -6 -28 -45 -50
-86 -39 -72 -41 -74 -47 -45 -42 191 -84 296 -132 334 -53 42 -111 11 -99 -53
14 -72 64 -152 150 -236 l85 -82 -15 -42 c-28 -77 -44 -178 -42 -260 l1 -82 7
110 c9 132 48 264 111 370 22 38 42 71 43 72 1 1 20 -4 41 -12 83 -30 175 -9
246 54 52 46 46 61 -26 61 -87 0 -151 -18 -203 -58 -39 -29 -44 -31 -31 -11 9
13 30 47 47 74 38 61 81 80 196 89 87 7 147 30 202 79 65 56 33 85 -72 66 -88
-16 -117 -32 -182 -98 -51 -52 -92 -76 -92 -56 0 4 22 43 49 88 46 76 53 83
101 100 77 27 121 77 153 175 26 78 34 143 21 176 -10 26 -65 19 -116 -13z"
            />
            <path
                fill="#57674b"
              d="M1633 4185 c-10 -23 -9 -27 12 -41 15 -10 32 -13 47 -9 21 7 21 7 5
-9 -9 -10 -21 -15 -26 -11 -15 8 -25 -15 -12 -28 6 -6 11 -19 11 -29 0 -10 4
-18 9 -18 5 0 11 -9 14 -20 3 -11 12 -20 20 -20 25 0 29 18 7 32 -11 7 -20 18
-20 25 0 7 -5 13 -11 13 -5 0 -7 5 -4 10 8 14 35 -6 35 -26 0 -18 20 -28 32
-16 8 8 7 16 -2 27 -7 8 -10 19 -6 23 4 4 12 -1 17 -11 11 -19 39 -23 39 -6 0
6 -9 24 -21 40 -11 16 -18 33 -14 38 3 6 -11 18 -31 27 -34 16 -37 16 -49 1
-7 -9 -16 -17 -20 -17 -4 0 -2 7 5 15 6 8 9 19 5 25 -11 18 -30 11 -42 -15z"
            />
            <path
                fill="#57674b"
              d="M4363 4140 c-3 -13 -14 -20 -29 -20 -26 0 -32 -18 -12 -38 8 -8 8
-15 -1 -25 -6 -8 -9 -22 -5 -31 7 -18 39 -22 50 -5 5 8 10 6 16 -5 12 -22 49
-20 55 3 3 11 13 21 24 24 20 5 26 41 9 52 -6 4 -8 10 -5 15 11 17 -7 41 -26
35 -11 -4 -19 -2 -19 4 0 6 -12 11 -26 11 -17 0 -28 -6 -31 -20z"
            />
            <path
                fill="#57674b"
              d="M2487 4093 c-4 -3 -7 -14 -7 -23 0 -13 -6 -16 -24 -13 -31 6 -45 -16
-21 -33 15 -11 16 -16 5 -29 -21 -25 -4 -48 30 -41 17 3 30 1 30 -4 0 -19 42
-10 47 9 3 11 15 21 27 23 22 3 38 48 17 48 -6 0 -11 11 -11 23 0 30 -10 40
-25 27 -9 -8 -14 -6 -19 5 -5 15 -37 21 -49 8z"
            />
            <path
                fill="#57674b"
              d="M3098 4051 c-55 -22 -166 -94 -223 -145 l-40 -37 70 6 c276 24 401
90 320 170 -29 30 -62 31 -127 6z"
            />
            <path
                fill="#57674b"
              d="M4129 3973 c-10 -11 -14 -46 -14 -118 0 -93 2 -106 30 -160 22 -42
44 -67 80 -92 47 -32 52 -39 81 -126 17 -51 30 -93 28 -95 -7 -10 -48 28 -65
60 -45 88 -153 166 -237 171 -32 2 -37 -1 -40 -22 -3 -18 11 -37 56 -81 52
-51 70 -61 133 -79 130 -37 165 -63 192 -141 8 -25 18 -54 23 -65 5 -13 -8 -6
-38 21 -72 67 -227 114 -236 73 -5 -25 90 -114 142 -134 31 -12 63 -16 101
-13 l55 5 25 -79 c38 -121 35 -129 -29 -71 -44 41 -65 52 -112 61 -85 18 -173
16 -181 -4 -8 -22 41 -70 105 -101 50 -24 59 -26 152 -20 l99 6 6 -64 c8 -71
0 -172 -19 -246 -7 -27 -10 -46 -5 -44 19 12 34 118 33 235 -1 105 -5 139 -28
215 -15 50 -30 99 -33 111 -4 17 8 29 61 63 76 50 118 95 149 157 24 51 15 71
-28 60 -46 -12 -105 -76 -147 -160 -22 -45 -42 -83 -44 -85 -8 -8 -15 8 -50
104 l-35 98 70 66 c58 56 72 75 86 123 18 64 13 98 -15 98 -35 0 -111 -132
-125 -217 -4 -24 -10 -45 -14 -47 -4 -3 -17 26 -30 64 -21 66 -21 72 -6 122
22 74 19 193 -5 243 -46 96 -135 153 -171 108z"
            />
            <path
                fill="#57674b"
              d="M2553 3590 c-3 -11 -11 -20 -18 -20 -16 0 -27 -27 -14 -36 5 -3 7
-13 5 -22 -9 -27 9 -45 38 -40 20 4 26 1 26 -13 0 -12 7 -19 20 -19 13 0 20 7
20 18 0 13 8 18 27 17 32 0 45 33 19 47 -10 6 -15 17 -11 27 7 22 -19 46 -40
37 -9 -3 -18 1 -21 9 -9 22 -45 18 -51 -5z"
            />
            <path
                fill="#57674b"
              d="M852 3426 c-42 -19 -92 -55 -92 -65 0 -5 34 -18 76 -31 56 -16 90
-21 126 -17 51 6 149 53 156 75 11 36 -202 67 -266 38z"
            />
            <path
                fill="#57674b"
              d="M4644 3275 c-35 -37 -69 -90 -104 -161 -28 -58 -49 -108 -46 -111 9
-9 146 76 193 120 83 77 123 163 91 195 -7 7 -28 12 -47 12 -30 0 -43 -9 -87
-55z"
            />
            <path
                fill="#57674b"
              d="M380 3117 c0 -7 12 -36 26 -65 25 -51 44 -67 44 -37 0 8 -5 15 -11
15 -5 0 -8 4 -4 10 3 5 12 7 19 4 17 -6 26 -50 14 -62 -5 -5 -2 -14 7 -22 8
-7 15 -9 15 -4 0 4 7 -1 16 -12 11 -13 17 -15 20 -6 3 6 13 12 22 12 10 0 33
14 52 30 34 30 34 30 12 36 -16 5 -21 12 -17 24 8 26 -14 35 -30 14 -12 -16
-14 -16 -15 -4 0 9 5 21 11 27 6 6 8 16 5 22 -9 15 -36 14 -36 -1 0 -6 -3 -8
-7 -4 -5 4 -8 13 -8 19 0 7 -7 13 -16 15 -23 4 -13 -45 12 -58 10 -6 16 -17
13 -25 -9 -22 -32 -18 -36 6 -4 29 -35 49 -47 31 -6 -10 -10 -4 -14 17 -5 22
-12 31 -27 31 -11 0 -20 -6 -20 -13z"
            />
            <path
                fill="hotpink"
              d="M937 3023 c-4 -3 -7 -17 -7 -29 0 -16 -7 -24 -22 -26 -29 -4 -35 -28
-9 -35 17 -4 19 -9 10 -24 -5 -11 -7 -24 -4 -29 8 -13 38 -13 52 1 8 8 17 -15
33 -83 81 -349 85 -367 71 -353 -5 6 -34 53 -65 105 -39 64 -53 96 -44 98 32
10 53 72 24 72 -7 0 -16 9 -19 20 -6 23 -42 27 -50 6 -3 -8 -15 -12 -31 -9
-19 4 -28 0 -33 -13 -3 -10 -2 -19 4 -21 5 -2 8 -14 6 -26 -3 -14 2 -29 11
-36 14 -12 19 -11 35 3 19 17 20 16 47 -31 15 -26 44 -75 65 -109 22 -33 39
-64 39 -68 0 -11 -198 164 -260 230 -50 54 -53 59 -32 62 26 4 27 9 6 50 -17
34 -50 43 -60 17 -4 -8 -14 -15 -24 -15 -25 0 -33 -16 -26 -46 4 -15 14 -24
26 -24 10 0 22 -5 25 -10 4 -6 15 -8 24 -5 13 4 26 -5 44 -28 14 -19 87 -87
161 -152 75 -65 135 -120 133 -122 -2 -2 -70 24 -151 57 -166 68 -267 128
-242 142 23 13 20 49 -4 55 -11 3 -20 12 -20 19 0 8 -9 14 -20 14 -11 0 -20
-5 -20 -10 0 -7 -6 -7 -19 -1 -23 13 -46 -9 -38 -38 3 -13 -1 -21 -14 -24 -24
-6 -25 -35 -1 -45 9 -4 17 -16 17 -27 0 -24 42 -34 51 -12 3 8 13 13 23 10 10
-2 25 2 33 10 13 14 20 12 59 -14 24 -16 80 -43 124 -61 44 -17 98 -40 120
-50 l40 -18 -75 6 c-95 7 -433 62 -467 75 -22 8 -23 12 -12 25 11 14 10 19
-11 36 -22 18 -25 18 -36 4 -6 -9 -18 -16 -27 -16 -23 0 -32 -21 -14 -34 11
-9 13 -16 5 -30 -13 -23 -5 -30 38 -33 23 -1 38 4 45 15 10 16 24 15 202 -14
106 -18 232 -35 280 -39 49 -4 86 -9 84 -11 -2 -3 -44 -11 -93 -20 -49 -8
-125 -26 -170 -40 -97 -29 -93 -29 -87 -4 5 17 1 20 -23 20 -16 -1 -38 0 -49
2 -14 2 -21 -3 -23 -19 -2 -13 -8 -23 -13 -23 -16 0 -9 -40 9 -47 9 -4 21 -12
25 -20 10 -17 44 -17 54 0 4 8 16 17 26 20 11 4 21 15 24 25 6 23 101 55 228
76 149 26 149 26 80 -45 -122 -123 -215 -184 -215 -139 0 5 -9 10 -20 10 -11
0 -20 -4 -20 -8 0 -4 -12 -8 -27 -7 -23 0 -28 -4 -28 -25 0 -14 -7 -28 -17
-32 -24 -10 -23 -39 2 -45 12 -3 19 -13 17 -26 -2 -26 32 -36 47 -15 6 9 22
15 36 14 20 -1 25 4 25 24 0 14 6 29 13 33 6 4 12 16 12 26 0 10 30 44 68 77
37 31 93 82 125 113 l57 55 2 -44 1 -45 6 44 6 44 87 -176 c89 -180 185 -348
245 -426 18 -24 33 -48 33 -54 0 -6 -3 -7 -7 -4 -3 4 -12 2 -19 -4 -18 -15 1
-51 24 -48 9 1 25 -1 34 -5 20 -9 41 1 33 15 -4 5 1 9 9 9 9 0 16 6 16 13 0
20 -30 77 -40 77 -15 0 -24 -24 -12 -28 21 -7 13 -20 -9 -15 -36 10 -131 153
-248 374 -33 63 -72 141 -86 174 l-27 60 39 -36 c21 -20 48 -42 61 -49 23 -11
23 -12 5 -26 -17 -13 -17 -15 0 -28 9 -7 17 -21 17 -30 0 -18 21 -21 48 -7 9
5 25 12 35 15 10 3 16 10 12 16 -3 5 0 18 7 29 10 17 8 24 -16 47 -21 22 -29
25 -36 15 -4 -8 -13 -10 -19 -6 -7 4 -19 1 -27 -6 -21 -17 -56 4 -106 63 l-40
48 64 0 c71 0 239 40 302 72 23 11 60 34 83 49 23 16 48 26 57 23 8 -3 21 -2
28 2 7 5 23 7 36 5 17 -2 22 3 22 18 0 12 6 21 15 21 8 0 15 9 15 20 0 11 -4
20 -9 20 -5 0 -11 8 -13 17 -5 24 -77 29 -85 5 -4 -9 -12 -21 -20 -25 -16 -10
-17 -34 0 -41 15 -6 -23 -40 -96 -83 -60 -37 -208 -82 -287 -89 -61 -5 -62 -5
71 49 54 22 90 32 96 26 11 -11 43 -2 43 12 0 5 6 9 14 9 20 0 29 30 11 36 -8
4 -15 12 -15 19 0 8 -14 13 -38 13 -30 1 -39 -4 -49 -25 -9 -18 -9 -30 -3 -39
8 -9 -8 -20 -64 -43 -42 -17 -90 -34 -108 -38 -29 -5 -24 1 40 46 97 69 167
141 227 233 44 68 53 76 75 71 21 -4 28 1 38 22 13 29 9 45 -12 45 -8 0 -16 9
-19 20 -6 23 -35 27 -43 5 -4 -10 -15 -12 -34 -9 -31 7 -48 -10 -31 -29 5 -7
8 -22 5 -34 -4 -14 1 -25 15 -35 21 -15 21 -16 -31 -89 -56 -78 -160 -172
-243 -220 -27 -16 -54 -29 -58 -29 -4 0 8 24 27 54 57 90 75 131 99 229 20 86
24 92 47 92 18 0 26 6 28 21 2 12 12 24 23 27 23 6 25 35 4 43 -8 4 -15 14
-15 24 0 23 -18 36 -32 22 -7 -7 -16 -7 -28 0 -23 15 -50 3 -50 -22 0 -11 -7
-20 -15 -20 -21 0 -31 -30 -14 -41 8 -4 14 -21 14 -36 0 -21 5 -29 23 -31 24
-4 24 1 -5 -116 -15 -60 -38 -114 -67 -151 -13 -18 -14 -13 -10 60 8 129 11
142 39 149 29 7 32 18 10 36 -8 7 -15 18 -15 25 0 24 -34 28 -49 6 -7 -12 -22
-21 -33 -21 -16 0 -19 -6 -16 -32 2 -21 8 -32 17 -30 29 6 41 -20 41 -87 0
-66 -21 -166 -38 -183 -5 -5 -12 10 -16 39 -3 26 -25 128 -48 226 l-42 179 23
17 c14 11 21 23 16 30 -4 8 1 14 14 18 24 6 29 41 6 49 -8 4 -13 9 -10 14 2 4
-2 16 -10 26 -13 17 -16 17 -26 4 -8 -11 -12 -12 -16 -2 -5 13 -35 17 -46 5z"
            />
            <path
                fill="#57674b"
              d="M4137 2882 c-48 -52 13 -144 156 -235 66 -42 137 -80 137 -72 0 3
-16 38 -36 78 -76 150 -158 247 -210 247 -17 0 -38 -8 -47 -18z"
            />
            <path
                fill="#57674b"
              d="M4678 2855 c-50 -28 -144 -200 -174 -319 l-7 -29 48 34 c27 19 85 69
131 112 114 107 137 173 74 207 -25 13 -39 12 -72 -5z"
            />
            <path
                fill="hotpink"
              d="M4093 2500 c-3 -13 -14 -20 -29 -20 -17 0 -24 -6 -24 -20 0 -11 7
-23 15 -26 8 -4 15 -16 15 -28 0 -12 5 -27 12 -34 8 -8 2 -28 -24 -79 -19 -37
-50 -112 -69 -167 l-34 -99 -6 59 -6 59 -1 -69 c-1 -38 -4 -67 -6 -65 -3 3
-14 46 -25 97 -11 51 -32 124 -46 163 -30 84 -30 85 -7 91 25 7 26 93 1 93 -9
0 -24 6 -33 14 -13 11 -19 11 -31 1 -8 -7 -15 -17 -15 -23 0 -5 -7 -15 -16
-22 -14 -9 -14 -16 -5 -33 6 -12 16 -22 21 -22 6 0 10 -7 10 -15 0 -9 10 -19
23 -24 16 -6 29 -28 46 -77 23 -65 73 -285 66 -292 -7 -7 -235 230 -235 244 0
8 7 17 15 20 15 6 21 44 7 44 -4 0 -8 12 -7 28 0 24 -3 27 -32 26 -23 -1 -33
3 -36 17 -7 25 -27 24 -34 -1 -3 -13 -14 -20 -28 -20 -30 0 -39 -27 -16 -47
11 -9 17 -22 14 -30 -7 -18 17 -45 35 -38 8 3 21 0 30 -7 8 -7 22 -13 31 -13
9 0 68 -54 131 -119 l115 -118 -90 5 c-104 6 -185 32 -185 59 0 10 -7 18 -15
18 -8 0 -15 9 -15 20 0 31 -36 25 -53 -8 -13 -27 -12 -31 9 -51 18 -18 26 -20
41 -11 14 9 29 7 68 -10 34 -15 80 -24 143 -27 51 -3 89 -10 85 -14 -5 -5 -60
-36 -123 -70 -63 -34 -154 -85 -202 -114 -48 -29 -90 -50 -93 -47 -3 3 -2 21
1 39 5 25 3 33 -9 33 -8 0 -17 9 -20 20 -6 24 -45 27 -54 5 -5 -14 -7 -14 -24
1 -23 20 -42 9 -35 -21 4 -17 1 -24 -15 -28 -27 -7 -21 -41 8 -45 11 -2 23
-12 26 -23 6 -22 52 -27 60 -6 3 9 8 9 16 1 9 -8 -3 -20 -43 -47 -71 -47 -171
-142 -270 -255 -61 -70 -82 -88 -98 -84 -23 6 -40 -15 -32 -40 3 -10 2 -23 -1
-29 -10 -15 -33 20 -28 41 6 23 -23 33 -42 14 -18 -19 -19 -30 -2 -41 6 -4 12
-17 12 -28 0 -11 6 -19 13 -17 18 3 15 -18 -4 -25 -9 -3 -20 0 -25 8 -7 11
-10 12 -21 1 -11 -11 -10 -16 5 -26 16 -13 16 -15 -4 -40 -11 -14 -26 -26 -34
-26 -7 0 -15 -7 -19 -15 -3 -8 -12 -15 -21 -15 -11 0 -15 -8 -13 -23 2 -15
-25 -58 -87 -139 -49 -64 -95 -117 -101 -117 -14 -1 -91 80 -132 142 -46 66
-98 179 -121 263 l-19 72 40 18 c58 26 103 84 123 158 32 116 8 144 -60 71
-56 -60 -95 -137 -95 -189 0 -54 -6 -43 -26 47 -16 72 -16 79 1 123 9 25 38
69 63 97 59 67 83 124 85 200 2 52 -1 62 -16 65 -25 5 -74 -51 -109 -123 -25
-52 -28 -70 -26 -140 1 -73 -11 -131 -24 -109 -3 5 -16 48 -28 96 l-23 87 22
50 c34 80 29 143 -19 239 -42 83 -99 145 -128 140 -25 -5 -56 -76 -60 -141 -6
-78 35 -162 116 -240 49 -46 62 -65 75 -114 10 -33 17 -65 17 -73 0 -7 -25 10
-55 39 -82 78 -209 126 -222 84 -6 -17 55 -82 99 -104 21 -11 68 -23 104 -26
52 -5 68 -10 79 -27 14 -22 59 -196 52 -202 -2 -2 -39 16 -82 41 -83 47 -167
71 -214 60 -43 -9 -45 -31 -8 -58 58 -43 113 -58 214 -58 l93 0 6 -27 c3 -15
15 -55 26 -90 11 -35 18 -65 15 -68 -2 -3 -42 18 -87 45 -103 63 -180 92 -247
95 -45 1 -58 6 -88 36 -34 33 -35 37 -35 106 0 40 -7 105 -15 145 -11 54 -12
75 -4 85 9 11 7 22 -5 49 -17 35 -26 41 -40 28 -4 -5 -13 -8 -19 -8 -6 0 -14
-15 -19 -32 -7 -27 -5 -36 13 -54 11 -11 27 -18 34 -15 10 3 18 -7 25 -32 13
-45 26 -222 16 -222 -13 0 -156 133 -156 144 0 6 -9 22 -20 36 -11 14 -20 33
-20 43 0 16 -52 45 -71 40 -10 -3 -79 64 -73 69 10 11 -22 27 -36 18 -12 -7
-11 -12 4 -29 11 -12 14 -21 8 -21 -15 0 -16 -27 -2 -35 6 -4 17 -2 24 4 10 9
15 8 20 -4 3 -8 1 -15 -4 -15 -6 0 -10 -6 -10 -12 0 -17 54 -42 58 -28 2 6 8
8 13 4 14 -8 0 -24 -22 -24 -20 0 -26 -24 -9 -35 17 -10 2 -24 -20 -18 -11 3
-20 1 -20 -4 0 -18 25 -63 36 -63 21 0 24 14 7 33 -17 20 -17 20 0 14 10 -4
21 -7 23 -7 2 0 4 -6 4 -14 0 -17 27 -29 36 -15 3 5 -6 22 -20 36 -29 29 -34
48 -10 39 9 -3 18 -6 20 -6 2 0 4 -9 4 -20 0 -11 7 -20 15 -20 18 0 20 21 3
38 -21 21 0 24 23 3 13 -12 56 -49 94 -84 39 -34 96 -85 128 -113 35 -31 54
-55 48 -59 -17 -10 -13 -60 7 -77 27 -24 72 -44 132 -59 40 -9 74 -28 125 -68
87 -70 313 -221 329 -221 7 0 17 -5 23 -11 9 -9 2 -25 -27 -64 -90 -121 -210
-331 -210 -366 0 -7 22 30 48 83 57 114 166 278 295 443 75 97 97 119 115 117
13 -2 22 2 22 10 0 7 11 18 25 25 20 9 25 8 25 -3 0 -8 -11 -19 -25 -24 -28
-11 -32 -25 -10 -34 9 -3 18 1 21 9 4 8 10 15 15 15 15 0 10 -22 -8 -36 -14
-10 -15 -15 -6 -25 9 -9 18 -7 41 10 17 11 35 21 40 21 10 0 42 55 42 72 0 4
-9 8 -20 8 -11 0 -20 4 -20 9 0 6 12 9 28 8 36 -3 36 23 -1 36 -35 11 -41 6
-41 -38 0 -27 -3 -32 -13 -23 -7 6 -13 17 -13 24 0 19 -13 18 -56 -6 l-36 -21
23 30 c15 18 30 28 40 25 25 -7 53 24 38 42 -9 11 -8 18 1 29 15 18 47 20 52
3 3 -7 9 -8 18 -3 11 7 11 10 -1 19 -17 13 -19 48 -2 53 7 3 9 -3 6 -16 -4
-16 -1 -21 16 -21 31 0 39 30 13 48 -22 14 -22 15 35 81 204 235 277 298 494
429 128 77 282 162 294 162 4 0 -7 -16 -25 -36 -17 -20 -36 -47 -42 -60 -10
-22 -12 -22 -25 -6 -12 16 -14 16 -27 0 -7 -10 -21 -18 -30 -18 -9 0 -16 -8
-16 -20 0 -11 5 -20 10 -20 6 0 10 -11 10 -25 0 -19 5 -25 23 -25 13 0 28 -5
35 -12 8 -8 17 -5 36 13 26 24 34 49 16 49 -5 0 -7 7 -4 15 4 8 1 22 -6 30
-11 13 -8 23 17 58 17 23 45 52 62 65 l31 25 0 -64 c0 -112 58 -280 129 -374
27 -35 36 -56 31 -66 -5 -8 -5 -19 1 -26 6 -7 8 -16 5 -22 -10 -16 5 -41 25
-41 10 0 19 -4 19 -10 0 -5 9 -10 20 -10 11 0 20 4 20 9 0 5 9 11 20 14 21 5
28 27 9 27 -8 0 -8 5 1 15 10 12 10 18 0 30 -7 9 -19 14 -27 11 -8 -3 -13 2
-13 14 0 24 -18 26 -35 4 -10 -14 -18 -8 -59 47 -61 80 -67 94 -105 212 -30
94 -38 148 -25 181 5 12 13 6 37 -26 73 -102 141 -167 243 -233 91 -59 103
-70 98 -91 -4 -16 0 -25 14 -33 29 -15 52 -14 52 4 0 8 9 19 20 25 24 13 26
38 5 46 -10 4 -14 16 -13 33 3 24 1 26 -37 24 -22 -1 -44 -2 -48 -2 -4 -1 -11
-10 -15 -20 -6 -18 -14 -15 -87 33 -81 53 -172 143 -226 225 -33 51 -37 66
-11 55 9 -4 28 -7 41 -7 16 1 20 -2 11 -7 -23 -14 101 -68 202 -88 88 -18 93
-21 96 -45 3 -26 11 -31 39 -28 6 1 14 -8 18 -19 7 -23 40 -27 52 -7 4 8 16
16 26 20 18 7 24 37 7 37 -6 0 -6 7 1 19 17 26 4 51 -26 51 -14 0 -24 3 -24 8
5 32 -22 45 -38 18 -4 -7 -19 -13 -33 -12 -19 1 -26 -5 -28 -21 -2 -15 -10
-23 -23 -23 -43 0 -167 34 -214 59 l-50 26 70 3 c104 5 155 -5 155 -29 0 -12
7 -19 20 -19 11 0 20 4 20 9 0 5 9 11 20 14 27 7 27 47 -1 54 -11 3 -18 11
-15 18 2 6 1 18 -4 25 -12 19 -60 4 -60 -19 0 -36 -24 -44 -127 -39 -54 3
-111 11 -128 18 -30 13 -30 13 45 30 41 10 144 37 228 61 l153 43 15 -23 c10
-14 22 -20 34 -16 12 4 19 -1 23 -15 6 -23 35 -27 43 -5 4 8 12 15 19 15 18 0
38 27 26 35 -7 4 -7 12 1 25 15 23 -7 54 -33 47 -12 -3 -19 2 -21 16 -4 26
-38 36 -38 12 0 -13 -6 -16 -24 -11 -36 9 -54 -18 -31 -44 10 -11 15 -20 11
-20 -4 0 -97 -25 -207 -56 -127 -36 -209 -54 -225 -50 -24 6 -22 10 57 109 86
107 188 217 201 217 4 0 8 -6 8 -14 0 -22 22 -31 34 -14 6 8 19 17 29 21 23 9
22 44 -3 52 -11 3 -20 15 -20 26 0 14 -7 19 -25 19 -18 0 -28 -9 -40 -34 -9
-19 -14 -40 -10 -46 3 -5 -8 -22 -25 -37 -18 -14 -82 -89 -143 -166 -61 -77
-112 -136 -114 -130 -9 27 142 393 163 393 2 0 13 -5 23 -12 16 -10 24 -7 50
19 32 32 40 53 20 53 -6 0 -8 8 -4 19 8 27 -21 54 -45 41 -14 -7 -19 -5 -23
10 -7 26 -37 26 -44 0z m-1605 -1600 c17 -25 44 -60 59 -79 l28 -34 -25 13
c-41 21 -220 145 -285 197 l-60 48 95 5 95 5 30 -55 c17 -30 45 -75 63 -100z"
            />
            <path
                fill="#57674b"
              d="M1763 2347 c-4 -7 -15 -12 -23 -12 -9 0 -15 -10 -16 -25 0 -14 -3
-31 -8 -38 -9 -15 1 -32 20 -32 19 0 18 -16 -6 -86 -36 -105 -137 -235 -239
-310 -34 -24 -61 -47 -61 -49 0 -16 125 82 165 129 41 47 53 55 103 65 31 7
81 24 111 37 63 28 62 28 55 10 -7 -18 13 -31 29 -17 7 5 23 7 36 4 19 -5 22
-2 20 18 -1 13 1 32 5 41 9 20 0 38 -18 38 -8 0 -16 9 -19 20 -5 19 -7 19 -39
6 -20 -9 -32 -21 -30 -30 2 -9 -2 -16 -9 -16 -7 0 -9 -9 -5 -25 5 -19 1 -27
-16 -36 -24 -13 -151 -49 -156 -44 -2 1 10 23 26 49 16 25 40 73 52 105 14 38
29 61 41 64 10 3 19 13 19 22 0 9 4 14 9 11 16 -10 35 22 22 37 -8 10 -7 17 1
25 14 14 6 23 -34 40 -21 9 -29 8 -35 -1z"
            />
            <path
                fill="#57674b"
              d="M4190 2186 c-14 -14 -12 -39 3 -55 9 -10 9 -15 0 -18 -22 -8 -194
-126 -190 -130 3 -2 45 23 95 57 49 33 93 60 96 60 3 0 6 -7 6 -15 0 -16 30
-35 54 -35 9 0 16 8 16 19 0 10 9 21 20 24 23 6 27 35 5 43 -8 4 -15 19 -15
35 0 26 -2 28 -40 26 -22 -1 -45 -6 -50 -11z"
            />
            <path
                fill="#57674b"
              d="M990 1808 c-46 -25 -39 -98 11 -119 61 -25 235 -4 356 42 36 14 25
20 -97 53 -118 32 -235 42 -270 24z"
            />
            <path
                fill="#57674b"
              d="M1545 1750 c-4 -6 0 -19 9 -29 9 -10 16 -26 16 -35 0 -13 6 -17 19
-13 30 7 45 -9 44 -47 -1 -23 4 -36 12 -36 7 0 18 -6 24 -14 10 -12 18 -11 51
5 22 11 40 24 40 29 0 6 7 10 15 10 20 0 19 26 0 34 -11 4 -19 -3 -25 -19 -6
-15 -17 -25 -29 -25 -11 0 -23 -5 -26 -10 -5 -8 -11 -7 -21 1 -18 15 -18 30
-1 23 8 -3 20 2 27 11 7 8 19 15 27 15 20 0 41 22 35 38 -5 17 -32 15 -32 -3
0 -8 -5 -15 -11 -15 -7 0 -8 7 -4 18 16 39 17 52 3 52 -8 0 -19 -5 -26 -12 -9
-9 -12 -7 -12 10 0 13 -6 22 -15 22 -23 0 -18 -45 7 -62 22 -15 18 -38 -8 -38
-8 0 -14 10 -14 25 0 29 -24 43 -44 25 -12 -9 -15 -6 -18 17 -3 29 -30 43 -43
23z"
            />
            <path
                fill="#57674b"
              d="M2996 1698 c-48 -48 -96 -212 -96 -332 l0 -38 48 52 c110 123 172
224 172 283 0 39 -14 54 -58 63 -27 5 -37 1 -66 -28z"
            />
            <path
                fill="#57674b"
              d="M1102 1408 c-7 -7 -12 -17 -12 -24 0 -7 -8 -10 -20 -7 -23 6 -39 -22
-22 -39 8 -8 8 -17 1 -31 -16 -28 10 -53 39 -38 14 7 23 8 27 1 11 -18 47 -11
52 10 3 11 13 20 23 20 23 0 33 25 17 42 -7 7 -12 22 -12 33 0 13 -7 20 -20
20 -11 0 -24 6 -28 13 -10 15 -29 16 -45 0z"
            />
            <path
                fill="#57674b"
              d="M3269 1344 c-36 -8 -83 -20 -105 -27 l-39 -14 80 -26 c238 -79 355
-76 355 8 0 57 -35 75 -139 74 -47 0 -116 -7 -152 -15z"
            />
            <path
                fill="#57674b"
              d="M2590 1314 c-14 -9 -51 -42 -82 -72 -48 -47 -59 -64 -74 -119 -9 -35
-15 -66 -12 -69 8 -7 103 41 145 72 36 27 93 134 93 176 0 22 -4 28 -23 28
-12 0 -34 -7 -47 -16z"
            />
            <path
                fill="#57674b"
              d="M3165 1119 c-4 -5 -18 -14 -32 -20 -17 -6 -23 -14 -19 -27 3 -9 2
-22 -2 -28 -9 -14 -52 -25 -52 -13 0 20 -20 7 -35 -23 -10 -21 -12 -34 -5 -36
5 -2 10 -12 10 -22 0 -21 41 -70 59 -70 6 0 11 9 11 21 0 15 -5 19 -15 15 -11
-4 -17 3 -22 24 -3 17 -9 30 -14 30 -15 0 -10 28 6 34 10 3 15 -1 15 -13 0
-10 7 -24 15 -31 8 -7 15 -18 15 -25 0 -7 6 -18 14 -24 10 -9 16 -8 26 4 10
12 9 16 -4 21 -9 3 -16 10 -16 15 0 5 11 3 25 -3 20 -9 28 -9 38 2 9 10 9 13
0 17 -19 7 -16 20 7 26 31 8 24 27 -10 27 -19 0 -30 -5 -30 -14 0 -19 -14 -28
-35 -20 -22 9 -14 27 16 34 18 5 24 12 22 33 -1 20 4 27 20 29 26 4 38 48 13
48 -8 0 -18 -5 -21 -11z"
            />
            <path
                fill="#57674b"
              d="M2127 973 c-4 -3 -7 -14 -7 -23 0 -13 -6 -16 -25 -12 -20 3 -25 0
-25 -16 0 -11 6 -22 13 -25 9 -3 9 -7 -2 -20 -22 -27 -6 -50 29 -44 16 4 32 2
35 -3 3 -6 15 -10 26 -10 17 0 20 4 18 28 0 4 10 9 23 12 24 6 40 50 18 50 -7
0 -9 7 -6 16 9 23 -13 47 -29 34 -9 -8 -14 -6 -19 5 -5 15 -37 21 -49 8z"
            />
            <path
                fill="#57674b"
              d="M2306 746 c-61 -23 -73 -61 -35 -110 15 -20 29 -26 57 -26 41 0 138
42 209 91 43 30 45 33 25 40 -45 17 -215 20 -256 5z"
            />
            <path
                fill="#57674b"
              d="M2676 741 c-16 -6 -14 -11 18 -39 58 -51 114 -76 142 -63 25 11 40
50 30 76 -3 8 -17 20 -31 25 -30 11 -131 12 -159 1z"
            />
            <path
                fill="#57674b"
              d="M2596 648 c37 -122 103 -179 147 -130 37 41 12 80 -79 126 -65 32
-78 33 -68 4z"
            />
            <path
                fill="#57674b"
              d="M2520 479 c39 -99 78 -137 120 -116 30 16 41 48 27 77 -13 24 -94 74
-140 86 l-28 6 21 -53z"
            />
          </g>
        </svg>